<?xml version="1.0" encoding="UTF-8"?>
<svg id="Layer_1" data-name="Layer 1" xmlns="http://www.w3.org/2000/svg" viewBox="0 0 1190.30202 606.77038">
  <g id="Layer_3-2" data-name="Layer 3">
    <g>
      <path d="m430.20789,210.13431c17.90103-3.45152,30.28042,17.61271,17.89205,30.51299-40.64784,42.3063-106.99707,98.71703-168.55484,117.48428-49.09062,14.9653-119.40535-38.14786-73.6345-111.46276,83.47568,1.17246,159.57464-8.94163,224.29728-36.53451Z" style="fill: #d3d3d3; stroke-width: 0px;"/>
      <g>
        <path d="m243.6478,525.47315h0c2.88048-2.64163,3.13343-7.16607.4918-10.06061l-17.14246-18.78642c-2.64163-2.88048-7.16611-3.13339-10.06065-.49176h0c-2.88048,2.64163-3.13343,7.16607-.4918,10.06061l17.14246,18.78642c2.64163,2.96478,7.16611,3.20362,10.06065.49176Z" style="fill: #f89a57; stroke-width: 0px;"/>
        <path d="m223.03474,533.79142h0c3.96244-.25291,6.92722-3.62523,6.67431-7.58767l-1.64401-25.3905c-.25291-3.96244-3.62519-6.92722-7.58763-6.67431h0c-3.96244.25291-6.92722,3.62523-6.67431,7.58767l1.64401,25.3905c.25291,3.87814,3.63925,6.92722,7.58763,6.67431Z" style="fill: #f89a57; stroke-width: 0px;"/>
        <path d="m220.56172,507.41741c.4918,0,.9836-.0843,1.55966-.16861,3.30204-.82906,5.3535-4.20129,4.45424-7.58767-.0843-.40745-4.69309-13.51723,7.50333-35.84458,1.64401-3.04908.4918-6.75861-2.47302-8.40258-3.04913-1.64396-6.75861-.49176-8.40262,2.47302-14.58513,26.69724-8.97873,43.26356-8.57123,44.83728.66045,2.81024,3.13347,4.69313,5.92964,4.69313Z" style="fill: #f89a57; stroke-width: 0px;"/>
      </g>
      <path d="m11.39581,452.6178c4.67907-1.9672,9.79363-3.61116,15.2455-4.83361,1.15221-.25291,1.36292-1.79859.33721-2.37465-1.30675-.73069-2.57139-1.48942-3.79384-2.26222-14.50083-9.23164-11.36744-23.07202,5.69071-25.22189,10.13093-1.32081,21.59666-.74475,33.30132,1.89688,9.99037,2.22011,19.09559,5.76095,26.87992,10.14491,3.17558,1.78453,7.15209,1.41918,9.96233-.8993,33.48399-27.51224,50.59832-64.36846,38.55645-112.26898-2.38872-9.72344-5.77502-19.44683-9.892-28.76277-3.62523-7.65791-7.25037-15.32984-12.60387-21.59666l-.91336-.74471c-.16861-.16861-.25291,0-.40745,0l-.16861.0843c-.0843.25291,0,.74471,0,1.15221-11.78896-55.71293,23.81677-110.42823,79.52965-122.21719,56.54194-12.19642,92.38652,25.46073,100.95775,83.07058.16861,11.4517,3.37228,22.98776,6.75861,34.36918,2.30441,7.50333,4.60879,14.99263,6.18251,22.41165.4075,1.89692.74471,3.79384,1.0679,5.60641,23.9151,149.92612-76.46651,212.76297-210.51481,198.16377-2.36059-.25291-4.73524.40745-6.57594,1.89688-5.66267,4.59476-12.19642,8.78199-19.44687,12.32291-10.7913,5.26919-21.83551,8.40258-31.9805,9.55479-17.05816,1.89688-23.32493-10.9599-11.36744-23.24062,1.5456-1.57373,3.18965-3.11932,4.91791-4.63687.8571-.74475.39347-2.17792-.74475-2.24815-6.96942-.50582-13.5734-1.7142-19.58735-3.58303-16.38355-4.84759-17.21261-19.10949-1.39097-25.7838Z" style="fill: #fff; stroke-width: 0px;"/>
      <g>
        <path d="m201.9439,531.2341h0c2.88048-2.64163,3.13343-7.16607.4918-10.06061l-17.14246-18.78642c-2.64163-2.88048-7.16607-3.13339-10.06061-.49176h0c-2.88048,2.64163-3.13339,7.16607-.49176,10.06061l17.14246,18.78642c2.64154,2.96478,7.18009,3.21769,10.06057.49176Z" style="fill: #f89a57; stroke-width: 0px;"/>
        <path d="m181.4151,539.56652h0c3.96244-.25291,6.92722-3.62523,6.67431-7.58767l-1.64396-25.3905c-.25291-3.96244-3.62523-6.92722-7.58767-6.67431h0c-3.96244.25291-6.92722,3.62523-6.67431,7.58767l1.64396,25.3905c.253,3.86407,3.63929,6.91316,7.58767,6.67431Z" style="fill: #f89a57; stroke-width: 0px;"/>
        <path d="m172.28184,505.81556c.28104,1.46129.57606,2.36059.66036,2.68374.09837.40745.23885.78686.39347,1.15221.99766,2.16385,3.21769,3.54093,5.5221,3.54093.50582,0,.99766-.0843,1.57373-.15454,3.28801-.81499,5.3535-4.20129,4.44014-7.57361-.01406-.1265-.43558-1.36292-.70256-3.65327v-.01406c-.01406-.1265-.02813-.26698-.04219-.40745-.56208-5.50804-.09837-16.48201,8.2621-31.78377.39347-.74475.64639-1.5456.70256-2.33246,0-2.24815-4.84767-.14048-9.65315,2.16385-4.21535,2.02337-7.43304,5.70478-8.83816,10.15898-4.08886,12.87084-3.18956,21.93387-2.31839,26.21947Z" style="fill: #f89a57; stroke-width: 0px;"/>
      </g>
      <g>
        <path d="m98.09161,425.44278c1.58779,2.03744,3.8922,3.5128,6.61814,4.03268l95.6464,18.32271c2.74.51989,5.42374-.01406,7.65791-1.30675,2.65569-1.55966,4.665-4.20129,5.26919-7.46117l13.85444-72.27928-117.3555-22.48189-13.85444,72.27928c-.63232,3.25988.23885,6.46359,2.16385,8.89442Z" style="fill: #d97757; stroke-width: 0px;"/>
        <path d="m98.09161,425.44278c1.58779,2.03744,3.8922,3.5128,6.61814,4.03268l95.6464,18.32271c2.74.51989,5.42374-.01406,7.65791-1.30675l-46.4532-54.78554-63.46925,33.7369Z" style="fill: #eaad99; stroke-width: 0px;"/>
        <polygon points="109.79627 344.32534 160.15566 398.88601 227.16579 366.82129 109.79627 344.32534" style="fill: #aa4526; stroke-width: 0px;"/>
      </g>
      <ellipse cx="119.68827" cy="357.0135" rx="41.12784" ry="72.68675" style="fill: #e9e8e9; stroke-width: 0px;"/>
      <path d="m205.82204,362.61992l.91332,10.63675c.91332-.0843,23.32497-2.22011,47.54919-17.05816,18.87073-11.53605,41.8725-32.9641,52.83245-71.53457-1.55966-7.41902-3.87814-14.92235-6.18251-22.41165-5.5221,38.31756-22.91747,66.75713-51.83479,84.64435-22.10257,13.67186-43.12312,15.63897-43.27766,15.72328Z" style="fill: #aa4526; stroke-width: 0px;"/>
      <g>
        <path d="m295.581,116.16225l-14.24792-34.56592c-1.65803-3.99053-5.08652-7.01153-9.27379-8.06536l-85.86675-22.59428c-41.24018-10.8756-84.43359,8.73984-103.43073,46.81855l-43.51647,87.17354c-1.7564,3.55495-1.91094,7.58763-.46371,11.26903l7.84058,19.58735c2.83837,7.05368,10.84747,10.48217,17.90119,7.72815l223.35761-89.26715c7.2222-2.89458,10.63667-10.97401,7.69998-18.08391Z" style="fill: #4c7746; stroke-width: 0px;"/>
        <ellipse cx="181.08296" cy="195.63359" rx="118.93442" ry="115.5479" transform="translate(-59.67953 81.19162) rotate(-21.78873)" style="fill: #fff; stroke-width: 0px;"/>
        <path d="m285.78732,119.53452l-17.28294-42.74371-130.21228.63232c-43.08088,23.85892-70.77579,60.85566-92.44269,102.96706l10.38384,30.85638,229.55406-91.71205Z" style="fill: #4c7746; stroke-width: 0px;"/>
        <path d="m290.39611,147.34182c-86.73796-4.15914-159.94458,27.87754-219.73243,92.51297-3.28801-9.23164-6.77268-16.66468-10.32758-22.50998-2.19198-3.63925-1.29268-8.30425,2.03744-10.86158,64.34033-50.27513,135.27071-79.92313,213.66226-86.3164,4.62285-.35128,8.69768,3.06315,8.97873,7.78437.37937,5.84525,2.37461,12.36502,5.38158,19.39061Z" style="fill: #69a559; stroke-width: 0px;"/>
        <circle cx="144.95227" cy="100.46706" r="18.37895" style="fill: #69a559; stroke-width: 0px;"/>
        <g>
          <path d="m139.51447,215.11064h0c-9.07709,3.6814-13.54536,14.02309-9.94826,23.11421l6.57594,16.45392c3.6814,9.07705,14.02305,13.54536,23.11421,9.94822h0c9.07709-3.6814,13.54536-14.02309,9.94826-23.11421l-6.57594-16.45392c-3.5971-9.17538-13.95281-13.64369-23.11421-9.94822Z" style="fill: #0a0b0b; stroke-width: 0px;"/>
          <circle cx="148.67587" cy="220.94187" r="5.92958" style="fill: #fff; stroke-width: 0px;"/>
        </g>
        <g>
          <path d="m251.93799,173.50511h0c-9.07705,3.6814-13.54536,14.02309-9.94822,23.11421l6.57594,16.45392c3.6814,9.07705,14.02309,13.54536,23.11421,9.94822h0c9.07705-3.6814,13.54536-14.02309,9.94822-23.11421l-6.57594-16.45392c-3.61116-9.17542-13.95281-13.64369-23.11421-9.94822Z" style="fill: #0a0b0b; stroke-width: 0px;"/>
          <circle cx="261.50688" cy="179.85623" r="5.9296" style="fill: #fff; stroke-width: 0px;"/>
        </g>
        <path d="m207.76111,278.76252c.25291.50582.56204,1.03977.8571,1.53157,4.97413,8.12158,13.05356,12.94113,22.06037,14.12142,8.29019,1.08193,16.04647-3.87814,18.39299-11.90135,2.74-9.38618.78686-19.68572-4.22942-27.90567-1.32081-2.14983-2.85239-4.0889-4.56663-5.76099-1.82664-1.82664-3.92029-3.34419-6.15442-4.62285-13.34862-7.51739-31.29197,5.22704-30.15382,21.37184.37937,4.65102,1.61588,9.09116,3.79384,13.16604Z" style="fill: #bd5e5e; stroke-width: 0px;"/>
        <path d="m202.70268,282.20503c-5.11465.35128-9.63909-3.25988-10.53839-8.30425-.67443-3.82192-.75873-7.74221-.26698-11.64844,2.81024-21.65288,33.75092-35.76027,51.94722-23.64812,3.49873,2.34657,6.56192,5.14274,9.10518,8.40262,2.97884,3.83599,2.54326,9.33001-.82901,12.8428-13.22221,13.77014-29.81665,21.00649-49.41802,22.35539Z" style="fill: #d68482; stroke-width: 0px;"/>
        <path d="m248.53763,248.18714c-4.45424-8.02321-11.21286-13.32054-22.04631-9.38618-1.02575.36534-1.01169,1.81261.01406,2.14983l22.03224,7.23635Z" style="fill: #f1b7b7; stroke-width: 0px;"/>
      </g>
      <path d="m320.97145,359.96431c17.3813,5.49397,18.22438,29.91493,1.19436,35.33876-55.8956,17.83095-145.05036,51.77857-207.00197,34.39727-31.1234-8.73979-61.65659-89.84326-8.78199-144.48832,72.81323,40.81867,144.53043,68.17636,214.5896,74.7523Z" style="fill: #e9e8e9; stroke-width: 0px;"/>
    </g>
  </g>
  <g>
    <g>
      <path d="m481.93099,220.02513c-.23321-.02489-.47142-.02637-.70446-.00001-20.0344,2.26566-27.87781,27.55888-11.23996,36.94021,54.90611,30.94027,166.58505,93.71423,238.14265,93.92087,56.69988.16265,118.92265-75.39218,52.6238-136.47053-.79632-.73362-1.93485-.98567-2.9722-.67546-89.46528,26.75332-199.17315,14.46818-275.84983,6.28492Z" style="fill: #c9cbc9; stroke-width: 0px;"/>
      <g>
        <path d="m712.3403,481.20037h0c-2.88048-2.64163-3.13343-7.16607-.4918-10.06061l17.14246-18.78642c2.64163-2.88048,7.16611-3.13339,10.06065-.49176h0c2.88048,2.64163,3.13343,7.16607.4918,10.06061l-17.14246,18.78642c-2.64163,2.96478-7.16611,3.20362-10.06065.49176Z" style="fill: #f89a57; stroke-width: 0px;"/>
        <path d="m732.95336,489.51864h0c-3.96244-.25291-6.92722-3.62523-6.67431-7.58767l1.64401-25.3905c.25291-3.96244,3.62519-6.92722,7.58763-6.67431h0c3.96244.25291,6.92722,3.62523,6.67431,7.58767l-1.64401,25.3905c-.25291,3.87814-3.63925,6.92722-7.58763,6.67431Z" style="fill: #f89a57; stroke-width: 0px;"/>
        <path d="m735.42638,463.14464c-.4918,0-.9836-.0843-1.55966-.16861-3.30204-.82906-5.3535-4.20129-4.45424-7.58767.0843-.40745,4.69309-13.51723-7.50333-35.84458-1.64401-3.04908-.4918-6.75861,2.47302-8.40258,3.04913-1.64396,6.75861-.49176,8.40262,2.47302,14.58513,26.69724,8.97873,43.26356,8.57123,44.83728-.66045,2.81024-3.13347,4.69313-5.92964,4.69313Z" style="fill: #f89a57; stroke-width: 0px;"/>
      </g>
      <path d="m943.65555,414.90225c-4.67907-1.9672-9.79363-3.61116-15.2455-4.83361-1.15221-.25291-1.36292-1.79859-.33721-2.37465,1.30675-.73069,2.57139-1.48942,3.79384-2.26222,14.50083-9.23164,11.36744-23.07202-5.69071-25.22189-10.13093-1.32081-21.59666-.74475-33.30132,1.89688-9.99037,2.22011-18.15885-.79627-25.94317,3.58769-3.17558,1.78453-7.15209,1.41918-9.96233-.8993-33.48399-27.51224-25.30619-39.07633-13.26432-86.97685,2.38872-9.72344,5.77502-19.44683,9.892-28.76277,3.62523-7.65791,7.25037-15.32984,12.60387-21.59666l.91336-.74471c.16861-.16861.25291,0,.40745,0l.16861.0843c.0843.25291,0,.74471,0,1.15221,11.78896-55.71293-23.81677-110.42823-79.52965-122.21719-56.47901-12.18284-92.30671,25.37698-100.92903,82.87831-.0191.12736-.02957.25668-.03185.38544-.20151,11.38825-3.38818,22.85858-6.75548,34.17601-2.30441,7.50333-4.60879,14.99263-6.18251,22.41165-.4075,1.89692-.74471,3.79384-1.0679,5.60641-23.9151,149.92612,51.17438,187.47084,185.22269,172.87164,2.36059-.25291,4.73524.40745,6.57594,1.89688,5.66267,4.59476,12.19642,8.78199,19.44687,12.32291,10.7913,5.26919,20.89876,14.9598,31.04376,16.112,17.05816,1.89688,23.32493-10.9599,11.36744-23.24062-1.5456-1.57373-3.18965-3.11932-4.91791-4.63687-.8571-.74475-.39347-2.17792.74475-2.24815,6.96942-.50582,13.5734-1.7142,19.58735-3.58303,16.38355-4.84759,17.21261-19.10949,1.39097-25.7838Z" style="fill: #fff; stroke-width: 0px;"/>
      <g>
        <path d="m754.0442,486.96132h0c-2.88048-2.64163-3.13343-7.16607-.4918-10.06061l17.14246-18.78642c2.64163-2.88048,7.16607-3.13339,10.06061-.49176h0c2.88048,2.64163,3.13339,7.16607.49176,10.06061l-17.14246,18.78642c-2.64154,2.96478-7.18009,3.21769-10.06057.49176Z" style="fill: #f89a57; stroke-width: 0px;"/>
        <path d="m774.573,495.29375h0c-3.96244-.25291-6.92722-3.62523-6.67431-7.58767l1.64396-25.3905c.25291-3.96244,3.62523-6.92722,7.58767-6.67431h0c3.96244.25291,6.92722,3.62523,6.67431,7.58767l-1.64396,25.3905c-.253,3.86407-3.63929,6.91316-7.58767,6.67431Z" style="fill: #f89a57; stroke-width: 0px;"/>
        <path d="m783.70627,461.54278c-.28104,1.46129-.57606,2.36059-.66036,2.68374-.09837.40745-.23885.78686-.39347,1.15221-.99766,2.16385-3.21769,3.54093-5.5221,3.54093-.50582,0-.99766-.0843-1.57373-.15454-3.28801-.81499-5.3535-4.20129-4.44014-7.57361.01406-.1265.43558-1.36292.70256-3.65327v-.01406c.01406-.1265.02813-.26698.04219-.40745.56208-5.50804.09837-16.48201-8.2621-31.78377-.39347-.74475-.64639-1.5456-.70256-2.33246,0-2.24815,4.84767-.14048,9.65315,2.16385,4.21535,2.02337,7.43304,5.70478,8.83816,10.15898,4.08886,12.87084,3.18956,21.93387,2.31839,26.21947Z" style="fill: #f89a57; stroke-width: 0px;"/>
      </g>
      <g>
        <ellipse cx="791.29819" cy="197.26134" rx="115.5479" ry="118.93442" transform="translate(314.4112 858.80776) rotate(-68.21127)" style="fill: #fff; stroke-width: 0px;"/>
        <g>
          <path d="m841.76576,196.12999h0c9.07709,3.6814,13.54536,14.02309,9.94826,23.11421l-6.57594,16.45392c-3.6814,9.07705-14.02305,13.54536-23.11421,9.94822h0c-9.07709-3.6814-13.54536-14.02309-9.94826-23.11421l6.57594-16.45392c3.5971-9.17538,13.95281-13.64369,23.11421-9.94822Z" style="fill: #0a0b0b; stroke-width: 0px;"/>
          <circle cx="832.60436" cy="201.96122" r="5.92958" style="fill: #fff; stroke-width: 0px;"/>
        </g>
        <g>
          <path d="m729.34224,154.52446h0c9.07705,3.6814,13.54536,14.02309,9.94822,23.11421l-6.57594,16.45392c-3.6814,9.07705-14.02309,13.54536-23.11421,9.94822h0c-9.07705-3.6814-13.54536-14.02309-9.94822-23.11421l6.57594-16.45392c3.61116-9.17542,13.95281-13.64369,23.11421-9.94822Z" style="fill: #0a0b0b; stroke-width: 0px;"/>
          <circle cx="719.77335" cy="160.87558" r="5.9296" style="fill: #fff; stroke-width: 0px;"/>
        </g>
        <path d="m773.51912,259.78187c-.25291.50582-.56204,1.03977-.8571,1.53157-4.97413,8.12158-13.05356,12.94113-22.06037,14.12142-8.29019,1.08193-16.04647-3.87814-18.39299-11.90135-2.74-9.38618-.78686-19.68572,4.22942-27.90567,1.32081-2.14983,2.85239-4.0889,4.56663-5.76099,1.82664-1.82664,3.92029-3.34419,6.15442-4.62285,13.34862-7.51739,31.29197,5.22704,30.15382,21.37184-.37937,4.65102-1.61588,9.09116-3.79384,13.16604Z" style="fill: #bd5e5e; stroke-width: 0px;"/>
        <path d="m778.57755,263.22438c5.11465.35128,9.63909-3.25988,10.53839-8.30425.67443-3.82192.75873-7.74221.26698-11.64844-2.81024-21.65288-33.75092-35.76027-51.94722-23.64812-3.49873,2.34657-6.56192,5.14274-9.10518,8.40262-2.97884,3.83599-2.54326,9.33001.82901,12.8428,13.22221,13.77014,29.81665,21.00649,49.41802,22.35539Z" style="fill: #d68482; stroke-width: 0px;"/>
        <path d="m744.55509,225.32675c-3.68094,1.20898-5.83268-4.2147-2.26464-5.72469,3.4238-1.44895,7.53313-1.585,12.49846.21825,1.02575.36534,1.01169,1.81261-.01406,2.14983l-10.21975,3.35661Z" style="fill: #f1b7b7; stroke-width: 0px;"/>
      </g>
      <path d="m624.00529,384.04335c-.14742.05552-.29233.12935-.4263.21947-15.49935,10.42664-9.51087,35.80633,8.85533,36.89865,60.55336,3.63104,158.67043,15.14418,215.44366-19.42372,28.3038-17.2428,60.7799-75.97896-5.37191-119.08132-.93805-.61121-1.97102-.52786-2.6882.19576-60.63057,61.17445-148.48081,75.83123-215.81257,101.19117Z" style="fill: #e9e8e9; stroke-width: 0px;"/>
    </g>
    <rect x="420.10861" y="199.94583" width="152.38014" height="78.51913" style="fill: #fff0c0; stroke-width: 0px;"/>
    <g>
      <path d="m445.47948,228.05073v22.72852h-2.93359v-22.72852h2.93359Z" style="stroke-width: 0px;"/>
      <path d="m450.60546,228.35396c1.78711-.26953,3.91162-.47168,6.23828-.47168,4.21533,0,7.2168.97754,9.20605,2.83252,2.02344,1.85449,3.20361,4.48486,3.20361,8.16064,0,3.70947-1.14648,6.74414-3.271,8.83496-2.12451,2.12451-5.63135,3.271-10.04883,3.271-2.09082,0-3.84424-.10107-5.32812-.26953v-22.35791Zm2.93359,20.09863c.74219.13477,1.82129.16846,2.96777.16846,6.27197,0,9.67822-3.50684,9.67822-9.64453.03369-5.36182-3.00146-8.76758-9.20605-8.76758-1.51758,0-2.66406.13477-3.43994.30322v17.94043Z" style="stroke-width: 0px;"/>
      <path d="m496.09667,250.03755c-1.0791.53955-3.2373,1.0791-6.00293,1.0791-6.40723,0-11.22949-4.04688-11.22949-11.49951,0-7.11523,4.82227-11.9375,11.87012-11.9375,2.83301,0,4.62012.60693,5.39551,1.01172l-.70801,2.39453c-1.1123-.54004-2.69727-.94434-4.58594-.94434-5.32812,0-8.86914,3.40576-8.86914,9.37451,0,5.56396,3.2041,9.13867,8.73438,9.13867,1.78711,0,3.6084-.37109,4.78809-.94434l.60742,2.32715Z" style="stroke-width: 0px;"/>
      <path d="m508.47264,250.77925l-.23535-2.05713h-.10156c-.91016,1.28174-2.66406,2.42822-4.99121,2.42822-3.30469,0-4.99023-2.32715-4.99023-4.6875,0-3.94531,3.50684-6.10352,9.8125-6.06982v-.3374c0-1.34863-.37012-3.77686-3.70898-3.77686-1.51758,0-3.10254.47217-4.24902,1.21387l-.6748-1.95557c1.34961-.87695,3.30566-1.4502,5.3623-1.4502,4.99121,0,6.20508,3.40576,6.20508,6.67676v6.104c0,1.41602.06738,2.79883.26953,3.91162h-2.69824Zm-.4375-8.3291c-3.2373-.06787-6.91309.50586-6.91309,3.67529,0,1.92236,1.28125,2.83301,2.79883,2.83301,2.12402,0,3.47266-1.34912,3.94531-2.73145.10059-.30371.16895-.64111.16895-.94434v-2.83252Z" style="stroke-width: 0px;"/>
      <path d="m515.68944,239.54976c0-1.92188-.0332-3.57422-.13477-5.0918h2.59668l.10059,3.20361h.13574c.74121-2.19189,2.52832-3.57471,4.51855-3.57471.33691,0,.57324.03369.84277.10107v2.79883c-.30371-.06738-.60645-.10107-1.01172-.10107-2.09082,0-3.57422,1.58496-3.97949,3.81055-.06738.40479-.13477.87695-.13477,1.38281v8.7002h-2.93359v-11.22949Z" style="stroke-width: 0px;"/>
      <path d="m540.47557,226.83687v19.72705c0,1.4502.0332,3.10254.13477,4.21533h-2.66406l-.13477-2.83252h-.06738c-.91113,1.8208-2.90039,3.20361-5.56445,3.20361-3.94531,0-6.98047-3.33887-6.98047-8.2959-.0332-5.4292,3.33887-8.76758,7.31738-8.76758,2.49609,0,4.18164,1.18018,4.92383,2.49561h.06738v-9.74561h2.96777Zm-2.96777,14.26416c0-.37109-.0332-.87695-.13477-1.24756-.43848-1.88867-2.05664-3.43994-4.28223-3.43994-3.06934,0-4.89062,2.69775-4.89062,6.30615,0,3.30469,1.61914,6.03613,4.82227,6.03613,1.99023,0,3.81055-1.31494,4.35059-3.54053.10156-.40479.13477-.80957.13477-1.28174v-2.83252Z" style="stroke-width: 0px;"/>
    </g>
  </g>
</svg>