<?xml version="1.0" encoding="UTF-8"?>
<svg id="Layer_1" data-name="Layer 1" xmlns="http://www.w3.org/2000/svg" viewBox="0 0 1190.30202 606.77038">
  <g id="Layer_4" data-name="Layer 4">
    <g>
      <g>
        <polygon points="286.54761 485.79231 247.09849 582.39459 259.12129 585.09517 292.82903 496.21464 321.33561 499.69543 329.73758 588.97607 342.04041 591.29667 330.45772 490.03328 286.54761 485.79231" style="fill: #f89a57; stroke-width: 0px;"/>
        <polygon points="342.04041 591.29667 350.70245 586.25547 340.56009 495.05446 378.64891 476.89023 402.11429 568.09124 411.37644 563.47017 378.64891 467.10794 330.45772 490.03328 342.04041 591.29667" style="fill: #d97757; stroke-width: 0px;"/>
        <polygon points="402.11429 568.09124 393.89242 566.65096 370.92709 480.59104 378.64891 476.89023 402.11429 568.09124" style="fill: #b0543b; stroke-width: 0px;"/>
        <polygon points="259.12129 585.09517 268.72348 579.1138 299.45055 497.01488 292.82903 496.21464 259.12129 585.09517" style="fill: #b0543b; stroke-width: 0px;"/>
      </g>
      <rect x="508.37883" width="191.26417" height="588.97619" style="fill: #276069; stroke-width: 0px;"/>
      <polygon points="736.7916 588.39598 699.643 588.97607 699.643 0 736.7916 17.96417 736.7916 588.39598" style="fill: #064651; stroke-width: 0px;"/>
      <rect x="521.68196" y="14.40335" width="164.67807" height="560.16936" style="fill: #2a1917; stroke-width: 0px;"/>
      <polygon points="680.71871 42.30976 686.36003 47.15091 686.36003 196.88552 680.71871 196.88552 680.71871 42.30976" style="fill: #276069; stroke-width: 0px;"/>
      <rect x="508.37883" y="196.88552" width="191.26417" height="10.80248" style="fill: #276069; stroke-width: 0px;"/>
      <rect x="556.28993" y="242.316" width="100.96339" height="154.57576" style="fill: #276069; stroke-width: 0px;"/>
      <rect x="508.37883" y="396.57162" width="191.26417" height="10.80255" style="fill: #276069; stroke-width: 0px;"/>
      <rect x="525.62281" y="42.30976" width="41.18957" height="154.5757" style="fill: #75a2a0; stroke-width: 0px;"/>
      <circle cx="546.20764" cy="66.65542" r="10.06235" style="fill: #cfbc81; stroke-width: 0px;"/>
      <rect x="525.62281" y="242.316" width="41.18957" height="154.57576" style="fill: #75a2a0; stroke-width: 0px;"/>
      <circle cx="546.20764" cy="266.66166" r="10.06235" style="fill: #cfbc81; stroke-width: 0px;"/>
      <rect x="570.83333" y="242.316" width="41.18957" height="154.57576" style="fill: #75a2a0; stroke-width: 0px;"/>
      <circle cx="591.43807" cy="266.66166" r="10.06235" style="fill: #cfbc81; stroke-width: 0px;"/>
      <rect x="616.04373" y="242.316" width="41.18957" height="154.57576" style="fill: #75a2a0; stroke-width: 0px;"/>
      <circle cx="636.64847" cy="266.66166" r="10.06235" style="fill: #cfbc81; stroke-width: 0px;"/>
      <rect x="639.52914" y="42.30976" width="41.18957" height="154.5757" style="fill: #75a2a0; stroke-width: 0px;"/>
      <path d="m325.8767,319.37379l121.32802-56.81312c7.7618-3.64086,16.02372,3.8809,13.18304,11.96279-22.00508,62.87458-52.67214,110.06541-98.1627,130.31008-16.62384,7.40173-35.84831,7.08159-51.69194-1.90046-20.60474-11.66273-23.92551-30.5471-12.60289-55.53285,5.62129-12.38274,15.62361-22.26503,27.94646-28.02643Z" style="fill: #bababa; stroke-width: 0px;"/>
      <circle cx="660.13387" cy="66.65542" r="10.06235" style="fill: #cfbc81; stroke-width: 0px;"/>
      <rect x="529.82379" y="448.70366" width="156.51621" height="125.84903" style="fill: #75a2a0; stroke-width: 0px;"/>
      <path d="m631.22729,485.79231h-38.56897c-3.00069,0-5.4213-2.4206-5.4213-5.4213v-3.7809c0-3.00069,2.4206-5.4213,5.4213-5.4213h38.56897c3.00069,0,5.4213,2.4206,5.4213,5.4213v3.7809c-.00012,2.98067-2.4206,5.4213-5.4213,5.4213Z" style="fill: #cfbc81; stroke-width: 0px;"/>
      <polygon points="657.2532 242.316 686.36003 262.60072 686.36003 396.89176 657.2532 396.89176 657.2532 242.316" style="fill: #276069; stroke-width: 0px;"/>
      <polygon points="566.81238 42.30976 595.91908 62.59448 595.91908 196.88552 566.81238 196.88552 566.81238 42.30976" style="fill: #276069; stroke-width: 0px;"/>
      <g>
        <rect x="340.80648" y="229.16229" width="154.57161" height="41.18842" transform="translate(62.36389 582.37758) rotate(-73.93025)" style="fill: #75a2a0; stroke-width: 0px;"/>
        <circle cx="432.80137" cy="198.88599" r="10.06232" style="fill: #cfbc81; stroke-width: 0px;"/>
        <polygon points="459.32752 181.20191 481.69268 208.74825 444.52411 337.79803 416.55763 329.73623 459.32752 181.20191" style="fill: #276069; stroke-width: 0px;"/>
      </g>
      <polygon points="286.54761 485.79231 330.45772 490.03328 378.64891 467.10794 340.56009 467.10794 286.54761 485.79231" style="fill: #eaad99; stroke-width: 0px;"/>
      <g>
        <path d="m360.18462,469.26847h0c1.66036-1.92049,1.48032-4.88113-.4401-6.54155l-12.52291-10.8625c-1.92043-1.66042-4.88113-1.48032-6.54149.44004h0c-1.66036,1.92049-1.48032,4.88113.4401,6.54155l12.52291,10.8625c1.92043,1.72049,4.88107,1.5404,6.54149-.44004Z" style="fill: #f89a57; stroke-width: 0px;"/>
        <path d="m347.48167,476.23004h0c2.54057-.46007,4.20098-2.88067,3.74085-5.4213l-3.00069-16.30382c-.46013-2.54063-2.88067-4.20092-5.42124-3.74085h0c-2.54057.46007-4.20098,2.88067-3.74085,5.4213l3.00069,16.30382c.46007,2.48055,2.88067,4.20092,5.42124,3.74085Z" style="fill: #f89a57; stroke-width: 0px;"/>
        <path d="m343.86084,459.34614c.32008-.04005.64016-.12002,1.00023-.22002,2.0805-.78021,3.14074-3.12072,2.30052-5.2412-.08004-.26007-4.08096-8.40197,2.12049-23.78553.84022-2.10046-.20006-4.42107-2.24051-5.26123-2.10046-.84016-4.421.2-5.26123,2.24051-7.40173,18.40428-2.5206,28.70658-2.12049,29.68691.64016,1.76042,2.40058,2.78067,4.20098,2.58055Z" style="fill: #f89a57; stroke-width: 0px;"/>
      </g>
      <path d="m378.26881,302.66998c-3.0607-7.10162.40012-11.86273-.58015-19.26446-9.9423-36.64848-36.02834-58.29344-71.69656-46.09067-35.1681,11.88275-54.05247,50.03158-42.16972,85.19974-.03999-.26007-.12002-.58009-.08004-.74016l.1-.06007c.1-.02002.14005-.12002.26007-.04005l.64016.42014c3.94091,3.64086,6.8816,8.34189,9.80225,13.02303,3.38079,5.72129,6.30144,11.76273,8.60196,17.86411,11.38264,29.92696,3.28079,54.97266-16.08373,75.29743-1.86042,1.94039-4.7011,2.50058-7.18165,1.48032-5.26123-2.14051-11.26261-3.66088-17.7041-4.32094-7.78183-.82014-15.24351-.32002-21.70503,1.32025-10.88252,2.68067-11.86273,11.88275-1.76042,16.76388.02002,0,.03999.02002.03999.02002,1.62037.78021,1.54033,3.06077-.12002,3.72083-2.42054.98021-4.7011,2.08044-6.82158,3.28079-9.74224,5.5213-8.12187,14.70335,2.88067,16.60381,3.24074.60011,6.70156.90023,10.30237.88021,1.72037,0,2.70064,1.96041,1.60035,3.28079-.40012.48009-.78021.94016-1.14028,1.42037-6.80156,8.86203-1.76042,16.70381,9.14213,14.18333,6.48148-1.52037,13.3831-4.38102,19.96464-8.62199,3.68084-2.38055,7.02164-5.00116,9.9423-7.78183,1.16024-1.10023,2.74062-1.66042,4.36099-1.68044,65.41514-.2,101.92358-40.70936,112.86605-136.11141l-3.46064-30.04704Z" style="fill: #fff; stroke-width: 0px;"/>
      <g>
        <path d="m331.39794,482.05146h0c2.12049-1.94039,2.30052-5.26123.36007-7.38171l-12.60289-13.80324c-1.94045-2.12049-5.26123-2.30058-7.38171-.36007h0c-2.12049,1.94039-2.30052,5.26123-.36007,7.38171l12.60289,13.80324c1.94045,2.16041,5.28125,2.36053,7.38171.36007Z" style="fill: #f89a57; stroke-width: 0px;"/>
        <path d="m316.33446,488.15284h0c2.90069-.1801,5.08119-2.66065,4.90116-5.58125l-1.22025-18.64432c-.18003-2.90069-2.66059-5.08113-5.58131-4.90116h0c-2.90069.1801-5.08119,2.66065-4.90116,5.58125l1.22025,18.64432c.1801,2.84062,2.66065,5.08113,5.58131,4.90116Z" style="fill: #f89a57; stroke-width: 0px;"/>
        <path d="m309.61293,463.36709c.20006,1.08021.42008,1.74039.48009,1.96041.06001.30012.18003.58009.28009.84016.72014,1.58032,2.36053,2.60058,4.06094,2.60058.38009,0,.72014-.06007,1.16024-.12002,2.42054-.60011,3.94091-3.08067,3.26076-5.56134-.02002-.1-.32008-1.00023-.52014-2.68067v-.02002c-.02002-.1-.02002-.2-.03999-.30012-.42008-4.04097-.06001-12.1228,6.08142-23.34536.28009-.54016.48009-1.14028.52014-1.72037,0-1.64039-3.56082-.1-7.10162,1.58032-3.10069,1.48032-5.46128,4.20092-6.5015,7.46169-2.98073,9.48254-2.3206,16.14399-1.68044,19.30475Z" style="fill: #f89a57; stroke-width: 0px;"/>
      </g>
      <g>
        <path d="m349.10204,383.58864l-3.20075,44.39026c-.1,1.62037-.94022,3.02072-2.14051,3.90093-1.00023.74016-2.22048,1.14028-3.56082,1.04028l-67.0755-4.84108c-1.32031-.07997-2.50058-.66019-3.36076-1.52037-1.06024-1.0603-1.68038-2.56065-1.56036-4.18102l3.20075-44.39026c.1-1.60035.9202-2.98067,2.0805-3.86088.84022-.66019,1.88044-1.0603,2.98067-1.10023h.06001c.18003,0,.38009,0,.56013.02002l67.0755,4.84108c.20006.02002.38009.06007.5401.07997l.1.02002c1.10023.22002,2.06047.76019,2.80063,1.52037,1.04034,1.06018,1.62043,2.50058,1.50041,4.0809Z" style="fill: #d97757; stroke-width: 0px;"/>
        <path d="m343.76084,431.87983c-1.00023.74016-2.22048,1.14028-3.56082,1.04028l-67.0755-4.84108c-1.32031-.07997-2.50058-.66019-3.36076-1.52037l35.8883-24.86573,3.28079-2.26053,2.90069,2.70058,31.9273,29.74686Z" style="fill: #eaad99; stroke-width: 0px;"/>
        <polygon points="271.82417 372.70612 308.59268 404.17335 349.52212 378.30739 271.82417 372.70612" style="fill: #aa4526; stroke-width: 0px;"/>
      </g>
      <path d="m330.81785,377.42718l1.40035,6.82152c.58015-.12002,14.92343-3.22071,29.48679-14.66342,11.34265-8.90208,24.5857-24.52569,28.74663-50.35166-1.58038-4.68107-3.64086-9.36215-5.70133-14.04322-.66013,25.2258-9.74224,44.97035-27.10624,58.75357-13.26307,10.5426-26.72621,13.42327-26.82621,13.48322Z" style="fill: #aa4526; stroke-width: 0px;"/>
      <g>
        <path d="m382.98987,271.94285c-2.12049,20.94484-12.90301,41.16949-31.40728,54.93274-34.34796,25.56597-82.33903,19.20439-107.16478-14.16325-1.2603-1.68038-2.42054-3.40081-3.50081-5.1412h-.02002c-3.84091-6.20145-6.66151-12.82297-8.48194-19.62453-7.88183-29.34681,2.78067-62.25438,29.24675-81.93892,28.14652-20.94484,65.4351-20.46475,91.62115-1.2603,5.80133,4.22095,11.04253,9.4022,15.52361,15.42355,0,.02002.02002.02002.02002.03999,3.58084,4.82112,6.5015,9.96232,8.74201,15.28356.1.24005.22002.48009.30006.70017.94022,2.28056,1.76042,4.58108,2.44057,6.92158,2.78067,9.40214,3.64092,19.20439,2.68067,28.82661Z" style="fill: #fff; stroke-width: 0px;"/>
        <g>
          <path d="m370.8871,199.3861c1.04022,6.62153.8202,13.26307-.78021,19.96464l-9.5022,6.56151c-47.15091,20.28472-86.82005,47.59101-119.16755,81.47885-6.20145,2.42054-13.06302,1.46036-16.62384-2.70064l-4.46105-5.2412-7.4217-8.78206c-.18003-.22002-.36007-.4401-.52014-.68015-2.34057-3.38079.5401-6.98159.8202-11.08258,1.08027-16.1037,32.64756-56.01294,80.75865-142.81297,7.52176-13.56313,29.30676-4.16093,38.4089,3.42077.46013.38009.9202.78021,1.3603,1.20029.96024.94022,1.84045,1.96048,2.64062,3.04068,3.24074,4.44103,7.00162,8.56198,10.78252,12.6629,1.72037,1.86042,3.36076,3.74085,4.92112,5.60127,2.04045,2.44057,3.94091,4.90116,5.66128,7.36169,7.02164,9.92234,11.54271,19.92465,13.12309,30.007Z" style="fill: #4c7746; stroke-width: 0px;"/>
          <path d="m370.8871,199.40606c1.04022,6.6015.8202,13.26307-.78021,19.96464l-9.5022,6.56151c-47.13089,20.26469-86.80009,47.59101-119.16755,81.45883-6.20145,2.42054-13.06302,1.48032-16.62384-2.70064l-4.46105-5.2412c40.88945-40.2093,88.28041-73.53701,142.65296-99.40298,2.7007-1.30029,5.60133-1.4603,7.88189-.64016Z" style="fill: #69a559; stroke-width: 0px;"/>
          <path d="m357.74405,169.35914c-1.14028,1.94045-2.70064,3.56082-4.68107,4.7011-7.54172,4.36099-18.16417.06001-23.72545-9.58223-5.42124-9.4022-4.02095-20.40474,3.04068-24.98575.46013.38009.9202.78021,1.3603,1.20029.96024.94022,1.84045,1.96048,2.64062,3.04068,3.24074,4.44103,7.00162,8.56198,10.78252,12.6629,1.72037,1.86042,3.36076,3.74085,4.92112,5.60127,2.02043,2.46059,3.92089,4.92118,5.66128,7.36175Z" style="fill: #69a559; stroke-width: 0px;"/>
        </g>
      </g>
      <path d="m390.17153,292.74764c-1.88044-3.9809-4.90116-7.20168-8.64201-9.54218-11.78275-7.28171-31.76735,2.54057-33.54773,16.48379-.56013,4.44103,0,8.80202,1.88044,12.86296,16.18373.08004,29.50682-6.80156,40.3093-19.80456Z" style="fill: #d68482; stroke-width: 0px;"/>
      <path d="m285.2873,328.25591c37.62869-8.1419,78.75819-29.72684,121.32802-56.81312,7.7618-3.64086,16.02372,3.8809,13.18304,11.96279-22.00508,62.87451-52.67214,110.06547-98.1627,130.31014-16.62384,7.40173-35.84831,7.08159-51.69194-1.90046-20.60474-11.66273-23.92551-30.5471-12.60289-55.53285,5.62129-12.38287,15.62361-22.24525,27.94646-28.0265Z" style="fill: #e9e8e9; stroke-width: 0px;"/>
      <path d="m282.18661,524.28119c1.56036.34004,41.78963,3.48078,41.78963,3.48078l1.02026,10.78252-46.69078-4.00092,3.8809-10.26238Z" style="fill: #f89a57; stroke-width: 0px;"/>
      <polygon points="282.18661 524.28119 290.40848 521.18049 323.55616 523.30098 323.97624 527.76197 282.18661 524.28119" style="fill: #d97757; stroke-width: 0px;"/>
      <polygon points="344.20094 527.76197 386.51071 507.45723 388.3511 514.57887 345.14116 536.22389 344.20094 527.76197" style="fill: #d97757; stroke-width: 0px;"/>
      <polygon points="386.51071 507.45723 378.08872 507.45723 343.60077 522.50074 344.20094 527.76197 386.51071 507.45723" style="fill: #b0543b; stroke-width: 0px;"/>
      <g>
        <path d="m314.99418,259.1399h0c-6.46152,2.6206-9.62222,9.96232-7.06163,16.4438l4.68107,11.70272c2.6206,6.46152,9.96232,9.62222,16.4438,7.06163h0c6.46152-2.6206,9.62222-9.96232,7.06163-16.4438l-4.68107-11.70272c-2.58061-6.5015-9.9423-9.68223-16.4438-7.06163Z" style="fill: #0a0b0b; stroke-width: 0px;"/>
        <circle cx="321.49568" cy="263.30083" r="4.22095" style="fill: #fff; stroke-width: 0px;"/>
      </g>
      <g>
        <path d="m380.30926,243.1362c2.78067,9.4022,3.64086,19.18443,2.68061,28.80664-6.02141,1.46036-12.36284-1.72037-14.7434-7.60173l-4.68107-11.68269c-2.54057-6.46152.62014-13.8232,7.08165-16.42378,2.28056-.9202,4.68107-1.14028,6.94161-.70017.1.24005.22002.48009.30006.70017l2.42054,6.90156Z" style="fill: #0a0b0b; stroke-width: 0px;"/>
        <path d="m377.8687,236.21462c-.46013-.08004-.94022-.08004-1.42031-.02002-2.30052.38009-3.86088,2.56059-3.46082,4.84115.38009,2.30052,2.54057,3.86088,4.84115,3.48078,1.00023-.18003,1.86042-.68015,2.48055-1.40035l-2.44057-6.90156Z" style="fill: #fff; stroke-width: 0px;"/>
      </g>
      <path d="m280.88626,284.56576c0,5.00116-4.06094,9.06209-9.06209,9.06209s-9.06209-4.06094-9.06209-9.06209,9.06209-21.28495,9.06209-21.28495c0,0,9.06209,16.28379,9.06209,21.28495Z" style="fill: #7ac2e2; stroke-width: 0px;"/>
      <path d="m301.13099,303.59017c0,2.76065-2.22048,4.98113-4.98113,4.98113s-4.98113-2.22048-4.98113-4.98113,4.98113-11.70272,4.98113-11.70272c0,0,4.98113,8.94207,4.98113,11.70272Z" style="fill: #7ac2e2; stroke-width: 0px;"/>
    </g>
  </g>
</svg>