<?xml version="1.0" encoding="UTF-8"?>
<svg id="Layer_1" data-name="Layer 1" xmlns="http://www.w3.org/2000/svg" viewBox="0 0 1190.30202 606.77038">
  <g id="Layer_3" data-name="Layer 3">
    <g>
      <path d="m259.69662,138.26643c-19.94914-9.69252-41.12902,11.16261-30.63311,30.22281,34.44512,62.51407,94.65144,149.69529,161.08014,191.13204,52.97539,33.04342,152.32783-7.23088,121.62633-107.79701-98.46345-24.90649-184.7045-60.75336-252.07336-113.55785Z" style="fill: #d3d3d3; stroke-width: 0px;"/>
      <g>
        <path d="m460.69209,589.60871h0c-3.50432-3.21375-3.81206-8.71808-.59831-12.23951l20.85514-22.85515c3.21375-3.50432,8.71813-3.81201,12.23957-.59826h0c3.50432,3.21375,3.81206,8.71808.59831,12.23951l-20.85514,22.85515c-3.21375,3.60688-8.71813,3.89746-12.23957.59826Z" style="fill: #f89a57; stroke-width: 0px;"/>
        <path d="m485.76948,599.72854h0c-4.82062-.30769-8.42751-4.41037-8.11982-9.23099l2.00006-30.88951c.30769-4.82062,4.41032-8.42751,9.23094-8.11982h0c4.82062.30769,8.42751,4.41037,8.11982,9.23099l-2.00006,30.88951c-.30769,4.71806-4.42743,8.42751-9.23094,8.11982Z" style="fill: #f89a57; stroke-width: 0px;"/>
        <path d="m488.77811,567.6425c-.59831,0-1.19663-.10256-1.89745-.20512-4.01718-1.00861-6.51295-5.1112-5.41893-9.23099.10256-.4957,5.70951-16.44476-9.12838-43.60772-2.00006-3.70945-.59831-8.22238,3.00862-10.22239,3.7095-2.00001,8.22238-.59826,10.22244,3.00862,17.74395,32.47928,10.92332,52.63348,10.42757,54.54804-.80349,3.41887-3.81211,5.70956-7.21387,5.70956Z" style="fill: #f89a57; stroke-width: 0px;"/>
      </g>
      <path d="m743.24472,500.97452c-5.69245-2.39325-11.91472-4.39326-18.54733-5.88046-1.40175-.30769-1.6581-2.18813-.41025-2.88895,1.58976-.88894,3.1283-1.812,4.6155-2.75217,17.64139-11.231,13.82938-28.0689-6.92319-30.68439-12.32507-1.60687-26.27402-.90605-40.51364,2.3077-12.15406,2.70094-23.23128,7.00864-32.70151,12.34208-3.86334,2.17102-8.70107,1.72655-12.11994-1.09406-40.73588-33.47078-61.55679-78.30924-46.90692-136.58395,2.90606-11.82932,7.02576-23.65858,12.03439-34.99215,4.41037-9.31644,8.82064-18.64995,15.33359-26.27402l1.11117-.906c.20512-.20512.30769,0,.4957,0l.20512.10256c.10256.30769,0,.906,0,1.40175,14.34219-67.77911-28.97495-134.34454-96.75401-148.68673-68.78767-14.83789-112.39539,30.97496-122.82296,101.06182-.20512,13.93189-4.10264,27.96639-8.22238,41.81278-2.8035,9.12838-5.60695,18.2397-7.52151,27.26552-.49575,2.30775-.906,4.6155-1.29919,6.82063-29.09458,182.3968,93.02746,258.84271,256.10766,241.08165,2.87184-.30769,5.76079.4957,8.00015,2.3077,6.88908,5.58989,14.83789,10.68397,23.65863,14.99178,13.12845,6.41038,26.56459,10.22239,38.90677,11.62414,20.75257,2.3077,28.37659-13.33358,13.82938-28.27403-1.88034-1.91456-3.88045-3.7949-5.98302-5.64112-1.04273-.90605-.47869-2.6496.90605-2.73506,8.47884-.61537,16.5131-2.08546,23.82954-4.35904,19.93187-5.89747,20.94048-23.24818,1.69222-31.368Z" style="fill: #fff; stroke-width: 0px;"/>
      <g>
        <path d="m511.42813,596.61735h0c-3.50432-3.21375-3.81206-8.71808-.59831-12.23951l20.85514-22.85515c3.21375-3.50432,8.71808-3.81201,12.23951-.59826h0c3.50432,3.21375,3.81201,8.71808.59826,12.23951l-20.85514,22.85515c-3.21364,3.60688-8.73514,3.91457-12.23946.59826Z" style="fill: #f89a57; stroke-width: 0px;"/>
        <path d="m536.40301,606.7544h0c-4.82062-.30769-8.42751-4.41037-8.11982-9.23099l2.00001-30.88951c.30769-4.82062,4.41037-8.42751,9.23099-8.11982h0c4.82062.30769,8.42751,4.41037,8.11982,9.23099l-2.00001,30.88951c-.30779,4.70095-4.42748,8.41039-9.23099,8.11982Z" style="fill: #f89a57; stroke-width: 0px;"/>
        <path d="m547.51434,565.69372c-.34191,1.77778-.70082,2.87184-.80338,3.26498-.11967.4957-.29057.95728-.47869,1.40175-1.21374,2.63249-3.91457,4.30781-6.71807,4.30781-.61537,0-1.21374-.10256-1.91456-.18801-4.00013-.9915-6.51295-5.1112-5.40177-9.21388.01711-.1539.52992-1.6581.85472-4.44449v-.01711c.01711-.1539.03422-.3248.05133-.4957.68382-6.70096.11967-20.05165-10.05149-38.66743-.47869-.90605-.78638-1.88034-.85472-2.83762,0-2.73506,5.89757-.1709,11.74381,2.63249,5.12831,2.46159,9.04288,6.9403,10.75231,12.35919,4.97441,15.65838,3.88035,26.68426,2.82051,31.89802Z" style="fill: #f89a57; stroke-width: 0px;"/>
      </g>
      <g>
        <path d="m637.77252,467.91399c-1.93167,2.4787-4.73517,4.27359-8.05148,4.90607l-116.36129,22.291c-3.33342.63248-6.5984-.01711-9.31644-1.58976-3.23086-1.89745-5.67534-5.1112-6.41038-9.0771l-16.85501-87.93337,142.7721-27.35097,16.85501,87.93337c.76927,3.9659-.29057,7.86347-2.63249,10.82076Z" style="fill: #d97757; stroke-width: 0px;"/>
        <path d="m637.77252,467.91399c-1.93167,2.4787-4.73517,4.27359-8.05148,4.90607l-116.36129,22.291c-3.33342.63248-6.5984-.01711-9.31644-1.58976l56.51394-66.65088,77.21528,41.04357Z" style="fill: #eaad99; stroke-width: 0px;"/>
        <polygon points="623.53289 369.2283 562.26678 435.60561 480.74374 396.59638 623.53289 369.2283" style="fill: #aa4526; stroke-width: 0px;"/>
      </g>
      <ellipse cx="611.4985" cy="384.66444" rx="50.03521" ry="88.42908" style="fill: #e9e8e9; stroke-width: 0px;"/>
      <path d="m506.71007,391.48508l-1.11112,12.94044c-1.11112-.10256-28.37664-2.70094-57.84729-20.75257-22.95771-14.0345-50.94116-40.1034-64.27479-87.02737,1.89745-9.02582,4.71806-18.1542,7.52151-27.26552,6.71807,46.61629,27.88089,81.21525,63.06105,102.97644,26.88949,16.63288,52.46264,19.02603,52.65065,19.12859Z" style="fill: #aa4526; stroke-width: 0px;"/>
      <path d="m202.15701,302.23552c33.04337,2.20519,99.48917,10.63269,121.14769,13.45325,4.05135.52992,7.17965,3.81206,7.50445,7.88047,2.17096,27.62443,12.25668,129.9,44.68467,171.28547,4.00007,5.09408,1.36753,12.59853-4.97446,13.93194l-126.29311,26.70138c-8.71813,1.84622-17.62428-2.49581-21.41923-10.58141-23.9321-50.90704-46.12059-134.77195-41.48798-204.48268.73504-10.76948,10.06855-18.90641,20.83797-18.18842Z" style="fill: #fff; stroke-width: 0px;"/>
      <g>
        <path d="m360.84395,462.10186l95.47199-123.01102,15.33364,11.36779-92.24113,125.30161c-1.93167,2.61549-4.5471,4.66673-7.55573,5.89757l-12.70109,5.19665c-2.11968.87183-4.39326-.92306-4.01718-3.19664l2.20519-13.55581c.4957-2.90596,1.69232-5.67523,3.50432-8.00015Z" style="fill: #0a0b0b; stroke-width: 0px;"/>
        <ellipse cx="464.03125" cy="344.53537" rx="6.30758" ry="9.65799" transform="translate(-86.10321 521.68416) rotate(-54.44234)" style="fill: #0a0b0b; stroke-width: 0px;"/>
      </g>
      <g>
        <path d="m397.51131,91.65014l17.3337-42.05213c2.01712-4.85479,6.18815-8.53007,11.28229-9.81214l104.46359-27.4877c50.17189-13.23101,102.72003,10.63269,125.83153,56.95841l52.94117,106.0534c2.13679,4.32487,2.32481,9.23094.56414,13.70965l-9.53868,23.82954c-3.45309,8.58135-13.19679,12.75238-21.77819,9.4019l-271.73192-108.60044c-8.78637-3.52149-12.94034-13.35074-9.36762-22.00048Z" style="fill: #4c7746; stroke-width: 0px;"/>
        <ellipse cx="536.80709" cy="188.33322" rx="140.57301" ry="144.69298" transform="translate(162.67374 616.88367) rotate(-68.21127)" style="fill: #fff; stroke-width: 0px;"/>
        <path d="m409.42608,95.75277l21.02604-52.00105,158.41337.76927c52.41125,29.02624,86.10426,74.03565,112.46373,125.26744l-12.63275,37.53919-279.27038-111.57484Z" style="fill: #4c7746; stroke-width: 0px;"/>
        <path d="m403.81913,129.58252c105.52348-5.05991,194.58503,33.9152,267.3216,112.54923,4.00013-11.231,8.23949-20.27388,12.56431-27.38514,2.66672-4.42743,1.57265-10.10277-2.4787-13.21396-78.27502-61.1636-164.56735-97.23271-259.93677-105.01062-5.62406-.42736-10.58141,3.72656-10.92332,9.47029-.46153,7.11121-2.8889,15.04301-6.54712,23.59019Z" style="fill: #69a559; stroke-width: 0px;"/>
        <circle cx="580.76288" cy="72.55572" r="22.35942" style="fill: #69a559; stroke-width: 0px;"/>
        <g>
          <path d="m587.37839,212.02856h0c11.04299,4.47871,16.47898,17.06019,12.10283,28.12024l-8.00015,20.01748c-4.47871,11.04294-17.06013,16.47898-28.12024,12.10278h0c-11.04299-4.47871-16.47898-17.06019-12.10283-28.12024l8.00015-20.01748c4.37615-11.16256,16.97468-16.59861,28.12024-12.10278Z" style="fill: #0a0b0b; stroke-width: 0px;"/>
          <circle cx="576.23284" cy="219.12271" r="7.21379" style="fill: #fff; stroke-width: 0px;"/>
        </g>
        <g>
          <path d="m450.60643,161.4122h0c11.04294,4.47871,16.47898,17.06019,12.10278,28.12024l-8.00015,20.01748c-4.47871,11.04294-17.06019,16.47898-28.12024,12.10278h0c-11.04294-4.47871-16.47898-17.06019-12.10278-28.12024l8.00015-20.01748c4.39326-11.16261,16.97468-16.59861,28.12024-12.10278Z" style="fill: #0a0b0b; stroke-width: 0px;"/>
          <circle cx="438.96513" cy="169.13883" r="7.21382" style="fill: #fff; stroke-width: 0px;"/>
        </g>
        <path d="m504.35104,289.46603c-.30769.61537-.68376,1.26497-1.04273,1.86328-6.05142,9.88054-15.88067,15.74389-26.83816,17.17981-10.08566,1.31625-19.52178-4.71806-22.37651-14.47892-3.33342-11.41902-.95728-23.94921,5.14542-33.94942,1.60687-2.61543,3.47015-4.97446,5.55567-7.0087,2.22225-2.22225,4.76934-4.06847,7.48734-5.62406,16.23964-9.14549,38.06911,6.3591,36.68447,26.0005-.46153,5.65833-1.96584,11.0601-4.6155,16.01751Z" style="fill: #bd5e5e; stroke-width: 0px;"/>
        <path d="m510.50502,293.65412c6.22237.42736,11.7267-3.9659,12.82077-10.10277.8205-4.64967.92306-9.41901.3248-14.17124-3.41887-26.34241-41.06062-43.50516-63.19784-28.76978-4.25648,2.85478-7.98309,6.25654-11.07716,10.22244-3.624,4.66678-3.09407,11.35068,1.00856,15.62427,16.08585,16.75245,36.27428,25.55603,60.12087,27.19707Z" style="fill: #d68482; stroke-width: 0px;"/>
        <path d="m454.74324,252.26869c5.41893-9.76086,13.64131-16.20547,26.82105-11.41902,1.24791.44447,1.2308,2.20519-.01711,2.61543l-26.80394,8.80358Z" style="fill: #f1b7b7; stroke-width: 0px;"/>
      </g>
      <path d="m343.28801,488.85457l-12.53014-11.50447c-12.01733-11.04299-31.47072-5.38476-35.67591,10.3934l-3.41887,12.75243c-.52992,2.00001-2.73511,3.05985-4.63256,2.22225l-6.97447-3.07696c-4.58127-2.01712-9.91471-1.36753-13.88061,1.67521l-12.49597,9.60702c-5.65823,4.34193-13.24813,5.23087-19.74396,2.27358l-1.35047-.61537" style="fill: none; stroke: #0a0b0b; stroke-linecap: round; stroke-miterlimit: 10; stroke-width: 5px;"/>
      <path d="m366.62185,388.25433c-21.14571,6.68385-22.17138,36.39385-1.45303,42.99235,68.00135,21.69274,176.46506,62.99266,251.83401,41.84695,37.86404-10.63264,75.01004-109.30132,10.68397-175.78129-88.58297,49.65908-175.83252,82.94185-261.06496,90.942Z" style="fill: #e9e8e9; stroke-width: 0px;"/>
    </g>
  </g>
</svg>